<svg width="60" height="69" viewBox="0 0 60 69" fill="none" xmlns="http://www.w3.org/2000/svg">
<g clip-path="url(#clip0_267_12795)">
<path d="M29.6078 9.22944C28.116 7.72697 26.6242 6.2245 25.1325 4.72203C23.9441 3.53521 22.7431 2.32313 21.2766 1.51508C19.8101 0.707027 18.0022 0.328253 16.422 0.896414C14.8923 1.45195 13.7671 2.81554 13.1856 4.31801C12.604 5.82048 12.4902 7.47446 12.4902 9.09056C12.4902 11.5147 12.9454 14.305 15.0187 15.5423C16.3714 16.3504 18.0402 16.2746 19.6078 16.161C22.0857 15.9969 24.5509 15.8327 27.0288 15.6686C27.5471 15.6307 28.0655 15.5928 28.5459 15.4035C29.4814 15.0121 30.0629 14.0525 30.2526 13.0677C30.4422 12.0829 30.9985 10.6057 29.6204 9.21682L29.6078 9.22944Z" fill="#ACD4F7"/>
<path d="M18.091 16.8807C16.9658 16.8807 15.7269 16.7292 14.6776 16.0979C12.7939 14.9742 11.8457 12.6132 11.8457 9.10319C11.8457 7.57547 11.9342 5.76998 12.5916 4.10338C13.3122 2.26001 14.627 0.883797 16.2073 0.315636C17.8128 -0.265151 19.7724 -0.0252607 21.5802 0.972177C23.1352 1.83073 24.3868 3.08069 25.5878 4.29276L30.0632 8.80017C31.5296 10.2774 31.1757 11.8304 30.9481 12.8657C30.9228 12.9919 30.8975 13.1056 30.8723 13.2192C30.6194 14.5323 29.8356 15.5802 28.7863 16.0221C28.2047 16.262 27.6106 16.2999 27.0669 16.3378L19.646 16.8302C19.1782 16.8554 18.6599 16.8933 18.1036 16.8933L18.091 16.8807ZM18.0278 1.26257C17.5347 1.26257 17.0543 1.33833 16.6245 1.50246C15.3855 1.94436 14.3489 3.06806 13.7673 4.5579C13.1858 6.04775 13.1099 7.6891 13.1099 9.10319C13.1099 12.146 13.8558 14.1283 15.335 15.0121C16.4728 15.6939 17.914 15.656 19.5575 15.5423L26.9784 15.0499C27.4336 15.0247 27.914 14.9868 28.2932 14.8353C29.0771 14.507 29.4942 13.6485 29.6333 12.9667C29.6586 12.8404 29.6839 12.7142 29.7218 12.5753C29.9367 11.6284 30.1516 10.6562 29.1782 9.68398L24.7028 5.17657C23.565 4.02762 22.3893 2.85342 20.986 2.07062C20.0126 1.52771 19.0012 1.26257 18.0657 1.26257H18.0278Z" fill="black"/>
<path d="M32.8446 9.22944C34.3364 7.72697 35.8282 6.2245 37.32 4.72203C38.5084 3.53521 39.7094 2.32313 41.1759 1.51508C42.6424 0.707027 44.4502 0.328253 46.0305 0.896414C47.5602 1.45195 48.6854 2.81554 49.2669 4.31801C49.8484 5.82048 49.9622 7.47446 49.9622 9.09056C49.9622 11.5147 49.5071 14.305 47.4338 15.5423C46.0811 16.3504 44.4123 16.2746 42.8446 16.161C40.3668 15.9969 37.9015 15.8327 35.4237 15.6686C34.9053 15.6307 34.387 15.5928 33.9066 15.4035C32.9711 15.0121 32.3895 14.0525 32.1999 13.0677C32.0103 12.0829 31.454 10.6057 32.832 9.21682L32.8446 9.22944Z" fill="#ACD4F7"/>
<path d="M44.3489 16.8807C43.8053 16.8807 43.2743 16.8428 42.8066 16.8175L35.3856 16.3251C34.8546 16.2873 34.2478 16.2494 33.6662 16.0095C32.6169 15.5676 31.8331 14.5197 31.5803 13.2066C31.555 13.0929 31.5297 12.9793 31.5044 12.853C31.2768 11.8177 30.9229 10.2648 32.3894 8.78754L36.8647 4.28013C38.0657 3.06805 39.3047 1.8181 40.8723 0.959543C42.6801 -0.037895 44.6397 -0.277785 46.2452 0.303002C47.8255 0.871163 49.1403 2.24737 49.8609 4.09074C50.5183 5.76997 50.6068 7.56284 50.6068 9.09056C50.6068 12.6005 49.6586 14.9616 47.775 16.0853C46.7257 16.7165 45.4867 16.868 44.3616 16.868L44.3489 16.8807ZM44.4121 1.26256C43.4766 1.26256 42.4652 1.54033 41.4918 2.07061C40.0885 2.84079 38.9128 4.02761 37.775 5.17656L33.2996 9.68397C32.3262 10.6688 32.5411 11.641 32.756 12.5753C32.7813 12.7142 32.8192 12.8404 32.8445 12.9667C32.9835 13.6611 33.4007 14.5197 34.1846 14.8353C34.5638 14.9994 35.0442 15.0247 35.4994 15.0626L42.9203 15.555C44.5638 15.6686 46.0177 15.6939 47.1428 15.0247C48.622 14.1409 49.3679 12.1586 49.3679 9.11581C49.3679 7.70172 49.292 6.04774 48.7105 4.57052C48.1289 3.06805 47.0796 1.95698 45.8407 1.51508C45.3982 1.36357 44.9305 1.27519 44.4374 1.27519L44.4121 1.26256Z" fill="black"/>
<path d="M56.2069 19.5321C55.1956 35.7941 54.1968 50.8567 53.1854 67.1187C38.0274 67.1187 22.2373 66.9925 6.44714 67.3713C5.67596 50.4527 5.14499 37.4986 4.32324 19.5195H56.2069V19.5321Z" fill="white"/>
<path d="M6.44741 68.0025C6.10607 68.0025 5.82794 67.7374 5.8153 67.3965C5.43603 59.0761 5.10734 51.7153 4.79128 44.2408C4.46258 36.5896 4.1086 28.6858 3.69141 19.5447C3.69141 19.368 3.74197 19.2038 3.8684 19.0776C3.98218 18.9513 4.15917 18.8882 4.32352 18.8882H56.2072C56.3842 18.8882 56.5485 18.9639 56.6623 19.0902C56.7761 19.2165 56.8393 19.3932 56.8267 19.5574C56.321 27.6884 55.8153 35.6552 55.3096 43.357C54.8166 51.0587 54.2982 59.0256 53.7925 67.1566C53.7673 67.4849 53.4891 67.75 53.1604 67.75C50.4424 67.75 47.699 67.75 44.943 67.75C32.3766 67.7248 19.3804 67.7122 6.43477 68.0152H6.42213L6.44741 68.0025ZM4.99356 20.1634C5.39811 29.0141 5.73945 36.7284 6.0555 44.2029C6.37156 51.488 6.68761 58.6721 7.05424 66.74C19.8102 66.4496 32.6042 66.4748 44.9809 66.4875C47.5346 66.4875 50.0757 66.4875 52.6042 66.4875C53.0972 58.5584 53.5903 50.7936 54.0833 43.2812C54.5637 35.7941 55.0568 28.0545 55.5498 20.1634H4.99356Z" fill="black"/>
<path d="M59.3676 15.8959C59.3676 18.6357 59.2285 21.6027 58.8493 24.2289C39.9744 24.5698 20.3284 24.2289 1.28923 24.2289C0.65712 21.5649 0.707689 18.7619 0.631836 15.9211C18.7734 15.9211 39.4182 15.8959 59.3676 15.8959Z" fill="white"/>
<path d="M40.0632 25.0117C33.7042 25.0117 27.3451 24.9738 21.0872 24.936C14.5638 24.8981 7.82554 24.8602 1.27686 24.8602C0.986094 24.8602 0.733249 24.6582 0.657396 24.3804C0.11378 22.0699 0.0758533 19.6205 0.0252844 17.2721C0.0252844 16.8302 0.0126422 16.3883 0 15.9464C0 15.7823 0.0632111 15.6055 0.176991 15.4919C0.290771 15.3656 0.45512 15.3025 0.632111 15.3025C9.48167 15.3025 18.9381 15.3025 28.6094 15.2898C38.7611 15.2898 49.153 15.2772 59.3552 15.2772C59.7092 15.2772 59.9874 15.555 59.9874 15.9085C59.9874 19.0145 59.8104 21.9184 59.469 24.3299C59.4311 24.6329 59.1656 24.8728 58.8496 24.8728C52.6675 24.9865 46.3717 25.0243 40.0632 25.0243V25.0117ZM2.23767 23.5976C8.48293 23.5976 14.8925 23.6355 21.0872 23.6734C33.3755 23.7491 46.0683 23.8249 58.2807 23.6103C58.5461 21.5396 58.6979 19.1155 58.7231 16.5272C48.7231 16.5272 38.5461 16.5272 28.6094 16.5398C19.1656 16.5398 9.93679 16.5524 1.27686 16.5524C1.27686 16.7797 1.27686 17.007 1.28951 17.2342C1.32743 19.4564 1.378 21.5649 1.7952 23.585H2.25032L2.23767 23.5976Z" fill="black"/>
<path d="M34.9428 14.9868C35.1198 19.7088 34.6899 24.4309 34.5256 29.1656C34.4244 32.1453 34.4244 35.1376 34.4371 38.1173L34.4876 68.0657C32.0224 68.4697 29.3296 68.4066 26.6621 68.1414C26.8644 50.882 26.9023 32.9912 27.1172 14.8353C29.4308 14.5954 31.7696 14.608 34.9428 14.9742V14.9868Z" fill="#ACD4F7"/>
<path d="M30.6068 69C29.3678 69 28.0404 68.9242 26.5992 68.7853C26.2705 68.7475 26.0303 68.4823 26.0303 68.1541C26.1188 59.8589 26.182 51.6016 26.2452 42.8646C26.3084 33.7235 26.3716 24.2794 26.4854 14.8606C26.4854 14.5449 26.7382 14.2671 27.0543 14.2419C29.5701 13.9894 31.9595 14.0273 35.0189 14.3808C35.3223 14.4187 35.5625 14.6712 35.5752 14.9868C35.7016 18.2948 35.5246 21.628 35.3602 24.8602C35.2844 26.2869 35.2085 27.7515 35.158 29.2035C35.0568 32.1579 35.0568 35.1881 35.0695 38.1047L35.12 68.0909C35.12 68.3939 34.8925 68.6591 34.5891 68.7096C33.388 68.9116 32.0606 69.0126 30.6068 69.0126V69ZM27.3071 67.5859C29.8356 67.8132 31.9974 67.7879 33.8558 67.5354L33.8052 38.1299C33.8052 35.1628 33.8052 32.1326 33.8937 29.153C33.9443 27.701 34.0202 26.2238 34.096 24.7844C34.2477 21.7542 34.4121 18.6357 34.3236 15.555C31.8331 15.2898 29.8103 15.252 27.737 15.4287C27.6232 24.6582 27.56 33.9129 27.5094 42.8646C27.4462 51.3996 27.3956 59.4801 27.3071 67.5859Z" fill="black"/>
<path d="M27.6992 15.4919C26.6373 14.7596 25.9419 13.497 25.904 12.2091C25.8661 10.9213 26.4729 9.62086 27.4843 8.82543C28.3187 8.16889 29.3933 7.85325 30.4552 7.75224C32.0861 7.60073 33.8813 8.01738 34.9053 9.29259C35.3731 9.86075 35.6385 10.5678 35.8155 11.2875C36.1442 12.6511 36.0304 14.2924 34.9432 15.1762C34.0962 15.8706 32.8952 15.9085 31.7953 15.9085C30.5943 15.9085 29.1278 16.5019 27.6992 15.5045V15.4919Z" fill="#ACD4F7"/>
<path d="M29.6589 16.7039C28.9257 16.7039 28.1292 16.5651 27.3328 16.0095C26.1065 15.1636 25.31 13.7116 25.2721 12.2218C25.2215 10.7319 25.9295 9.24209 27.0926 8.32041C27.9396 7.65124 29.0774 7.23459 30.3922 7.12096C32.4781 6.93157 34.3492 7.58811 35.3985 8.88857C35.8663 9.46936 36.2076 10.2143 36.4352 11.136C36.8903 13.0425 36.4857 14.7343 35.3479 15.656C34.3618 16.464 33.1103 16.5272 31.8081 16.5272C31.53 16.5272 31.2266 16.5651 30.9105 16.6029C30.5312 16.6534 30.114 16.7039 29.6842 16.7039H29.6589ZM28.0534 14.9742C28.9257 15.5802 29.8106 15.4666 30.7462 15.353C31.0875 15.3151 31.4541 15.2646 31.7955 15.2646C32.908 15.2646 33.8814 15.2141 34.5515 14.6712C35.4364 13.9515 35.4743 12.5248 35.2089 11.4264C35.0319 10.6941 34.779 10.1133 34.425 9.68399C33.6412 8.71181 32.1747 8.23203 30.5186 8.38354C29.4566 8.48454 28.5464 8.80019 27.889 9.31785C27.0293 9.99964 26.511 11.0981 26.5489 12.1965C26.5869 13.295 27.1684 14.3555 28.066 14.9742H28.0534Z" fill="black"/>
<path d="M35.7647 10.7446C35.6888 10.7446 35.613 10.7067 35.575 10.6309C35.5245 10.5299 35.5624 10.4037 35.6635 10.3405C37.661 9.30521 39.7596 8.44666 41.9088 7.77749C42.0226 7.73961 42.1364 7.80274 42.1743 7.91638C42.2122 8.03001 42.149 8.14364 42.0352 8.18152C39.9113 8.83806 37.838 9.68399 35.8658 10.7193C35.8405 10.7319 35.8026 10.7446 35.7647 10.7446Z" fill="black"/>
<path d="M40.8091 13.1813C40.8091 13.1813 40.7838 13.1813 40.7711 13.1813C39.2161 12.8531 37.6106 12.7016 36.0177 12.7016C35.9039 12.7016 35.8027 12.6132 35.8027 12.4869C35.8027 12.3607 35.9165 12.2723 36.0556 12.2723C37.6611 12.2723 39.2793 12.4364 40.8596 12.7647C40.9734 12.7899 41.0493 12.9036 41.024 13.0172C40.9987 13.1182 40.9102 13.1813 40.8217 13.1813H40.8091Z" fill="black"/>
<path d="M26.3721 10.593C26.3721 10.593 26.2963 10.593 26.271 10.5678C24.1976 9.3557 21.96 8.45927 19.6338 7.87849C19.52 7.85323 19.4568 7.7396 19.4821 7.62597C19.5074 7.51234 19.6212 7.44921 19.7349 7.47446C22.099 8.06787 24.3746 8.97693 26.4859 10.2016C26.587 10.2648 26.625 10.391 26.5617 10.492C26.5238 10.5552 26.448 10.593 26.3848 10.593H26.3721Z" fill="black"/>
<path d="M26.0932 12.6384C26.0932 12.6384 26.068 12.6384 26.0553 12.6384C24.6394 12.3733 23.1982 12.2596 21.7696 12.3101C21.6432 12.3101 21.5547 12.2218 21.5547 12.1081C21.5547 11.9945 21.6432 11.8935 21.757 11.8935C23.2108 11.843 24.69 11.9566 26.1312 12.2344C26.245 12.2596 26.3208 12.3606 26.2955 12.4743C26.2829 12.5753 26.1944 12.651 26.0932 12.651V12.6384Z" fill="black"/>
<g opacity="0.13">
<path d="M36.4857 12.8152C36.3087 12.1081 35.2721 11.9692 34.9181 12.6131C34.8928 12.6889 34.8422 12.7646 34.7917 12.8278C34.779 12.853 34.7537 12.8657 34.7158 12.9035C34.1848 13.3581 34.1595 13.4464 33.0344 13.6485C33.0091 13.6485 32.9965 13.6485 32.9712 13.6485C32.9712 13.6485 32.9712 13.6485 32.9585 13.6485C32.1241 13.6485 31.3024 13.7368 30.468 13.7747C29.4187 13.7242 29.5072 13.7747 28.382 13.4086C28.3568 13.3959 28.3188 13.3833 28.2809 13.3581C27.7373 13.055 27.7752 13.0045 27.6614 12.9162C27.4971 12.7646 27.3454 12.5626 27.1178 12.4995C26.1064 12.0324 25.1836 13.3959 25.98 14.1787C27.0546 15.3529 28.6728 15.8327 30.2278 15.8201C31.3656 15.7948 31.5679 15.6433 32.2379 15.6433C32.9838 15.6433 33.7297 15.5297 34.3997 15.2014C35.1583 14.81 34.9813 14.8479 35.4743 14.4691C35.7651 14.2166 36.0432 13.9262 36.2708 13.6106C36.3087 13.5727 36.3467 13.5096 36.3846 13.4591C36.4984 13.2571 36.5363 13.0172 36.4731 12.8025L36.4857 12.8152Z" fill="black"/>
</g>
<g opacity="0.13">
<path d="M25.9667 24.6456C25.9667 24.6456 25.8529 24.6456 25.8023 24.6329C23.2613 24.7213 20.7202 24.5572 18.1791 24.4814C15.3219 24.4183 12.4522 24.4814 9.59502 24.4183C8.40665 24.393 7.23092 24.3173 6.04255 24.3804C5.57479 24.393 5.04382 24.292 4.68983 24.6708C4.08301 25.239 4.53813 26.3627 5.37251 26.3248C7.83775 26.249 10.2903 26.35 12.7556 26.3374C15.3472 26.2869 17.9389 26.3627 20.5305 26.4384C21.6936 26.4889 22.8441 26.3627 24.0072 26.3753C24.5761 26.4384 25.145 26.3753 25.7139 26.4258C25.8403 26.4384 25.9541 26.451 26.0805 26.451C26.1437 26.451 26.2069 26.451 26.2575 26.4258C26.2448 26.4258 26.2195 26.4258 26.2069 26.4258C27.3826 26.2617 27.1551 24.5067 25.9793 24.6456H25.9667Z" fill="black"/>
</g>
<g opacity="0.13">
<path d="M55.6886 24.5445C55.0438 24.2415 54.1715 24.5445 53.4762 24.5445C51.9844 24.5445 51.4534 24.6708 50.3915 24.7718C47.2309 24.8097 44.0704 24.9486 40.9225 24.696C39.3927 24.5445 37.8504 24.4309 36.308 24.494C35.638 24.595 34.8415 24.4561 34.3106 24.9359C33.5141 25.7187 34.3106 27.0823 35.3852 26.7793C38.571 26.3248 44.2979 26.6909 48.5204 26.6278C50.4547 26.552 53.4762 26.6657 54.5634 26.4005C54.5761 26.4005 54.6013 26.4005 54.614 26.4005C54.93 26.3374 55.284 26.4384 55.5748 26.2869C56.2954 26.0344 56.3586 24.9486 55.6886 24.5824V24.5445Z" fill="black"/>
</g>
<path d="M8.33114 35.8068C8.23 35.8068 8.14151 35.731 8.12886 35.63C7.7496 33.1049 7.50939 30.5166 7.4209 27.9662C7.4209 27.8525 7.50939 27.7515 7.62317 27.7515C7.7496 27.7515 7.83809 27.8399 7.83809 27.9535C7.92659 30.4913 8.16679 33.0544 8.54606 35.5669C8.5587 35.6805 8.48285 35.7942 8.36907 35.8068C8.36907 35.8068 8.34378 35.8068 8.33114 35.8068Z" fill="black"/>
<path d="M10.7711 31.1731C10.67 31.1731 10.5688 31.0973 10.5562 30.9837L10.2148 27.7641C10.2148 27.6505 10.2907 27.5495 10.4045 27.5369C10.5183 27.5369 10.6194 27.6126 10.632 27.7263L10.9734 30.9458C10.9734 31.0595 10.8975 31.1605 10.7837 31.1731C10.7837 31.1731 10.7711 31.1731 10.7585 31.1731H10.7711Z" fill="black"/>
</g>
<defs>
<clipPath id="clip0_267_12795">
<rect width="60" height="69" fill="white"/>
</clipPath>
</defs>
</svg>
