<svg width="78" height="112" viewBox="0 0 78 112" fill="none" xmlns="http://www.w3.org/2000/svg">
<g clip-path="url(#clip0_142_77)">
<path d="M36.0049 41.1553C16.7823 41.1553 1.15527 56.7824 1.15527 76.005C1.15527 95.2275 16.7923 110.855 36.0049 110.855C55.2175 110.855 70.8545 95.2176 70.8545 76.005C70.8545 56.7924 55.2175 41.1553 36.0049 41.1553ZM31.5728 45.4779C32.9373 44.8903 34.6205 44.7309 36.0547 45.1094C36.7519 45.2887 36.5527 46.2648 35.8954 46.3146C35.1683 46.3644 34.4512 46.3544 33.7341 46.3942C33.1066 46.4341 32.4891 46.5636 31.8716 46.5735C31.3238 46.5735 31.025 45.717 31.5728 45.4879V45.4779ZM12.1609 55.7864C15.0194 50.2985 21.3141 46.8424 27.2601 46.1552C28.0669 46.0656 28.1266 47.2607 27.4394 47.4998C22.1308 49.3224 16.2545 51.2845 13.0275 56.2944C12.6789 56.8422 11.8621 56.3641 12.1609 55.7864ZM59.829 74.4612C56.7613 87.429 37.3097 99.2812 36.483 99.7792C36.3933 99.839 36.2937 99.8589 36.1842 99.8589C36.1045 99.8589 36.0248 99.839 35.9551 99.8091C25.1984 95.0283 14.5712 82.4092 12.7486 72.2501C11.8522 67.2702 13.0175 63.0272 16.115 59.9994C18.615 57.5493 21.2344 56.3043 23.8937 56.3043C29.9792 56.3043 34.4213 62.6986 35.7957 64.9395C37.3993 62.9675 42.3992 57.4895 48.2356 57.4895C52.0005 57.4895 55.357 59.7704 58.1955 64.2623C60.1477 67.3498 60.6955 70.786 59.829 74.4612Z" fill="white"/>
<path d="M0 76.005C0 95.855 16.145 112.01 36.005 112.01C55.865 112.01 72.01 95.865 72.01 76.005C72.01 56.145 55.855 40 36.005 40C16.1549 40 0 56.1549 0 76.005ZM36.005 110.855C16.7824 110.855 1.15535 95.2176 1.15535 76.005C1.15535 56.7924 16.7824 41.1553 36.005 41.1553C55.2276 41.1553 70.8546 56.7924 70.8546 76.005C70.8546 95.2176 55.2176 110.855 36.005 110.855Z" fill="black"/>
<path d="M48.2253 58.6449C41.841 58.6449 36.2336 66.2244 36.1838 66.3041C36.0643 66.4634 35.885 66.5431 35.6759 66.5431C35.4767 66.5332 35.2974 66.4136 35.2077 66.2443C35.1579 66.1547 30.417 57.4697 23.8834 57.4697C21.5328 57.4697 19.1823 58.6051 16.9015 60.8361C14.043 63.6348 13.0171 67.4096 13.8637 72.0609C15.6166 81.8116 25.7757 93.9129 36.134 98.6538C38.4646 97.1996 55.9343 85.9251 58.7031 74.2122C59.4999 70.8458 59.0019 67.7184 57.2191 64.8997C54.5996 60.7564 51.5718 58.6549 48.2253 58.6549V58.6449ZM35.6161 94.0324C35.1978 94.4009 34.6301 93.8332 35.0085 93.4248C35.8452 92.4886 36.8511 91.642 38.0662 91.2735C38.5941 91.1142 38.8232 91.8213 38.4148 92.1101C37.4886 92.7775 36.4726 93.2655 35.6161 94.0324ZM40.2773 92.9667C40.0084 93.624 39.62 94.0722 39.0025 94.4308C38.4746 94.7396 37.9766 93.893 38.5244 93.6041C38.9427 93.375 39.3112 93.0663 39.5901 92.6779C39.8192 92.3591 40.4566 92.5484 40.2773 92.9667Z" fill="#FFD1DC"/>
<path d="M48.226 57.4995C42.3895 57.4995 37.3996 62.9774 35.7861 64.9495C34.4117 62.7085 29.9696 56.3143 23.8841 56.3143C21.2248 56.3143 18.6053 57.5593 16.1054 60.0094C13.0079 63.0472 11.8426 67.2801 12.739 72.26C14.5716 82.4191 25.1988 95.0483 35.9455 99.819C36.0152 99.8489 36.0949 99.8688 36.1746 99.8688C36.2742 99.8688 36.3837 99.839 36.4734 99.7892C37.3 99.2912 56.7517 87.4389 59.8193 74.4711C60.6858 70.7959 60.138 67.3598 58.1859 64.2722C55.3374 59.7704 51.9909 57.4995 48.226 57.4995ZM58.7038 74.2022C55.935 85.915 38.4653 97.1896 36.1347 98.6438C25.7764 93.9128 15.6174 81.8016 13.8644 72.0509C13.0278 67.3996 14.0537 63.6149 16.9022 60.8261C19.183 58.5951 21.5335 57.4597 23.8841 57.4597C30.4177 57.4597 35.1587 66.1447 35.2085 66.2343C35.2981 66.4036 35.4774 66.5232 35.6766 66.5331C35.8857 66.5331 36.065 66.4534 36.1845 66.2941C36.2443 66.2144 41.8417 58.6349 48.226 58.6349C51.5725 58.6349 54.6003 60.7365 57.2198 64.8798C59.0026 67.6984 59.5006 70.8258 58.7038 74.1923V74.2022Z" fill="black"/>
<path d="M38.0664 91.2735C36.8513 91.642 35.8453 92.4886 35.0087 93.4248C34.6402 93.8431 35.2079 94.4009 35.6162 94.0324C36.4828 93.2654 37.4887 92.7774 38.415 92.1101C38.8134 91.8213 38.5943 91.1141 38.0664 91.2735Z" fill="black"/>
<path d="M39.5905 92.6679C39.3117 93.0563 38.9431 93.375 38.5248 93.5941C37.987 93.883 38.475 94.7295 39.0029 94.4208C39.6204 94.0622 40.0089 93.614 40.2778 92.9567C40.457 92.5384 39.8196 92.3392 39.5905 92.6679Z" fill="black"/>
<path d="M13.0277 56.3044C16.2547 51.2945 22.131 49.3324 27.4396 47.5098C28.1269 47.2707 28.0671 46.0756 27.2604 46.1652C21.3143 46.8524 15.0097 50.3085 12.1612 55.7964C11.8624 56.3741 12.6791 56.8521 13.0277 56.3044Z" fill="black"/>
<path d="M31.8619 46.5636C32.4894 46.5536 33.1069 46.4241 33.7244 46.3843C34.4515 46.3444 35.1686 46.3544 35.8857 46.3046C36.553 46.2548 36.7522 45.2887 36.045 45.0995C34.6108 44.7309 32.9276 44.8803 31.5631 45.468C31.0153 45.707 31.3141 46.5636 31.8619 46.5536V46.5636Z" fill="black"/>
</g>
<g clip-path="url(#clip1_142_77)">
<path d="M77.814 1.19315C78.4292 0.522013 77.497 -0.410128 76.8259 0.205085C74.3837 2.42358 71.4008 4.54886 69.5552 7.30799C69.0891 7.99778 70.0213 8.91127 70.7111 8.46385C73.4702 6.61821 75.5955 3.63536 77.814 1.19315Z" fill="black"/>
<path d="M53.2048 23.8069C52.5896 24.478 53.5218 25.4101 54.1929 24.7949C56.6351 22.5764 59.618 20.4512 61.4636 17.692C61.9297 17.0022 60.9975 16.0887 60.3077 16.5362C57.5486 18.3818 55.4233 21.3647 53.2048 23.8069Z" fill="black"/>
<path d="M76.8073 24.8136C77.4784 25.4288 78.4106 24.4967 77.7954 23.8255C75.5769 21.3833 73.4516 18.4005 70.6924 16.5548C70.0027 16.0888 69.0892 17.0209 69.5366 17.7107C71.3822 20.4698 74.3651 22.5951 76.8073 24.8136Z" fill="black"/>
<path d="M54.1929 0.204902C53.5218 -0.410311 52.5896 0.521829 53.2048 1.19297C55.4233 3.63518 57.5486 6.61803 60.3077 8.46366C60.9975 8.92973 61.911 7.99759 61.4636 7.30781C59.618 4.54868 56.6165 2.40475 54.1929 0.204902Z" fill="black"/>
</g>
<defs>
<clipPath id="clip0_142_77">
<rect width="72" height="72" fill="white" transform="translate(0 40)"/>
</clipPath>
<clipPath id="clip1_142_77">
<rect width="25" height="25" fill="white" transform="translate(53)"/>
</clipPath>
</defs>
</svg>
